<svg width="72" height="100" viewBox="0 0 72 100" fill="none" xmlns="http://www.w3.org/2000/svg">
<g clip-path="url(#clip0_2550_196)">
<path d="M70 16.7676V64.801C70 71.513 67.1605 77.8855 61.9896 81.8691C57.9455 84.9839 52.9573 88.5841 48.1895 91.3769C45.8056 92.7732 43.4946 93.958 41.3973 94.7799C39.2863 95.6079 37.461 96.0382 36.0253 95.9973C34.5875 95.9564 32.7681 95.4688 30.6746 94.6132C28.5958 93.7638 26.3051 92.577 23.9436 91.1949C19.2205 88.4308 14.2711 84.9236 10.229 81.8773C4.9308 77.8865 2 71.424 2 64.6037V16.7676C2 13.382 3.84086 10.3603 6.84451 9.24402C12.8178 7.02272 23.2869 4 36 4C48.7131 4 59.1822 7.02272 65.1555 9.24402C68.1591 10.3603 70 13.382 70 16.7676Z" stroke="black" stroke-width="3"/>
<path d="M5.19723 65.631C5.12689 65.5058 5.34773 65.3214 5.42637 65.2813C8.13584 63.9404 10.6444 61.3489 13.1754 59.67C13.8836 59.225 14.7027 58.8499 15.326 58.2852L15.4532 58.1632C15.3924 57.9902 15.3457 57.8218 15.3484 57.6345C15.3577 57.245 15.174 57.0241 14.9649 56.7093C14.6759 56.2554 14.8123 55.5382 14.9716 55.0642C15.2005 54.3098 15.5464 53.3613 16.1106 52.8172C16.3222 52.6088 16.6154 52.502 16.9621 52.502C17.1456 52.4943 17.2669 52.4971 17.3504 52.6749C17.4038 52.803 17.4204 52.8721 17.4912 53.35C17.6089 54.0099 17.7816 54.6585 17.8689 55.3245C17.9096 55.6437 18.1985 56.5956 17.8456 56.813C17.8291 56.8231 17.8116 56.8587 17.8116 56.8862C17.8116 56.9594 17.9087 56.9248 18.1787 56.7581C20.5398 55.2989 23.0405 55.7473 25.6112 55.8613C27.42 55.9376 27.4773 55.9447 27.754 56.083C28.0544 56.2346 28.1774 56.1651 28.4716 56.0342C28.769 55.892 29.4065 55.8432 29.629 55.6102C29.7274 55.5072 29.7531 55.242 29.8124 55.1059C30.045 54.5907 30.6074 54.5512 30.9989 54.2335C31.9483 53.4682 32.3873 52.3427 33.3767 51.7049C33.7304 51.4769 35.4438 49.4884 35.4652 49.4884C35.5332 49.4884 35.4992 49.3888 35.4254 49.3675C34.684 49.0452 33.8714 48.4204 33.2185 47.9308C33.0796 47.8242 32.9074 47.7528 32.7806 47.6329C32.7126 47.5699 32.6553 47.5495 32.531 47.5495C32.331 47.5495 32.0899 47.6198 31.8844 47.64C31.6281 47.6634 31.6222 47.6604 31.5242 47.5668C31.36 47.412 31.4039 47.2384 31.1164 47.2384C30.9309 47.2384 30.9173 47.2313 30.8057 47.0991C30.6904 46.9496 30.6696 46.6689 30.4824 46.6142C30.424 46.5968 30.3642 46.5852 30.3037 46.5796C30.193 46.5796 30.0513 46.4108 29.9406 46.1404C29.8794 45.9909 29.7755 45.7459 29.7046 45.5934C29.6722 45.5246 29.5773 45.1602 29.4891 45.1602C29.4438 45.1609 29.2742 45.2487 28.9803 45.4236C26.7016 46.7944 24.2636 47.6406 21.8818 48.7544C21.6114 48.8846 20.8595 49.4428 20.6516 49.0045C20.4934 48.6751 20.5642 48.5093 20.9953 48.1728C22.8179 46.7274 24.7615 45.3483 26.7569 44.173C27.6875 43.6161 28.7812 43.3599 29.826 43.1685C30.0979 43.1207 30.1124 43.0892 30.1221 42.5584C30.1289 42.2097 30.1416 42.0673 30.1833 41.988C30.3118 41.7428 30.6867 41.6503 30.9339 41.6312C31.1669 41.6108 31.1698 41.6108 31.2446 41.4715C31.6857 40.7001 31.9271 39.8002 32.2951 38.9856C32.4835 38.5627 32.7301 38.3726 33.0913 38.3726C33.2893 38.3726 33.3165 38.3929 33.3903 38.6145C33.5558 39.0963 33.3535 39.4936 33.2622 39.9444C33.0096 40.805 32.5714 41.5699 32.231 42.3896C32.208 42.449 32.0492 42.735 32.1067 42.7953C32.1203 42.8096 32.4466 42.7984 32.8311 42.7709C33.5923 42.7191 34.5224 42.715 37.3149 42.7536C38.2098 42.766 39.7847 42.6352 40.8161 42.712C41.0014 42.7853 39.7146 43.188 39.5762 43.2315C39.5121 43.2549 39.114 43.2966 38.8344 43.3108C38.5872 43.3219 38.3403 43.3368 38.0935 43.3555C37.0373 43.4345 35.9784 43.4671 34.9196 43.4531C34.2962 43.443 33.7806 43.443 33.7709 43.4491C33.7641 43.4562 33.8117 43.5772 33.8758 43.7165C33.9399 43.8507 34.0098 44.0215 34.0341 44.0866C34.0574 44.1557 34.1078 44.2696 34.1486 44.3458C34.1901 44.432 34.2131 44.5266 34.2159 44.623C34.2188 44.7194 34.2015 44.8154 34.1651 44.904C34.0966 45.0231 34.0165 45.1345 33.9263 45.2365C33.7515 45.4337 33.7437 45.451 33.801 45.4958C33.8342 45.5202 33.8725 45.5359 33.9127 45.5415C33.9428 45.5415 33.9962 45.569 34.037 45.6025C34.1011 45.6554 34.1418 45.7245 34.2564 45.9634C34.2962 46.0468 34.2933 46.1892 34.2525 46.2166C34.214 46.2404 35.7659 47.8271 36.9585 47.8271C37.194 47.8104 37.6333 47.1401 37.6722 46.9293C37.6955 46.7463 37.8469 46.4759 38.0091 46.3335C38.1576 46.2024 38.279 46.1231 38.4975 46.0082C39.3188 45.6067 39.9301 44.7629 40.6306 44.176C40.8296 44.0103 40.8695 43.9371 40.8228 43.8436C40.7827 43.7618 40.7279 43.6782 40.7209 43.5843C40.7209 42.7793 42.0432 42.8494 42.2142 42.3378C42.4161 41.8304 41.8626 38.9175 41.769 38.9175C41.6777 38.8992 41.4567 38.9175 41.3617 38.7914C41.3617 37.8419 40.8319 36.7516 40.7355 35.7677C40.718 35.6223 40.7248 35.602 40.8025 35.5501C41.3132 35.1912 42.1221 35.2304 42.7026 35.1546C43.0861 35.1038 43.1502 35.1444 43.2143 35.4901C43.3626 36.2669 43.3475 37.0596 43.4842 37.8357C43.5619 38.2617 43.5619 38.4071 43.4939 38.4834C43.4516 38.529 43.4028 38.5674 43.3492 38.5973L43.2648 38.642C43.3209 39.1865 43.4044 41.9817 43.9114 41.9321C44.0269 41.922 44.0367 41.9118 44.1308 41.6627C45.0939 39.1415 45.7145 36.4275 46.1426 33.7566C46.1795 33.7078 46.2028 32.9666 46.1659 32.9076C46.0185 32.6765 45.7924 32.7579 45.7989 32.3993C45.7989 32.0879 45.958 31.4792 46.1591 31.228C46.2096 31.1619 46.4989 31.0928 46.7184 31.0928C47.0819 31.0928 47.4254 31.2115 47.7019 31.4568C47.8913 31.6337 47.9535 31.6576 47.901 32.0627C47.8307 32.6055 47.8138 33.1435 47.2369 33.1435C47.0116 33.1425 46.7823 33.5032 46.7553 33.7251C45.9884 36.2241 45.4191 38.7691 44.9998 41.3546C44.9484 41.6422 44.8927 42.0433 45.027 42.3063C45.2905 42.8305 45.3426 43.4949 45.4882 44.0693C45.5659 44.3397 45.5591 44.3286 45.6775 44.2879C45.8154 44.2391 45.9776 44.0073 45.9776 43.8578C45.9776 43.3219 46.9636 43.0338 47.3757 42.9438C47.7796 42.8573 47.7767 42.8573 47.901 42.9844C48.1 43.1898 48.1903 43.5985 48.0855 43.8029C48.0592 43.8537 47.8505 44.0764 47.6213 44.294C47.1398 44.7546 46.8669 45.0392 46.563 45.3992C46.3815 45.6178 46.3475 45.6757 46.3475 45.7865C46.3475 45.9744 46.5504 46.0187 46.5504 46.1993C46.5504 46.5738 46.0428 47.1533 46.1222 47.1235C46.1523 47.1134 46.2329 47.093 46.3038 47.0788C49.8831 46.5737 53.028 44.8218 56.452 43.7887C56.4607 43.7853 56.0649 42.7821 55.7947 42.1965C55.7267 42.0846 55.7034 41.7999 55.7442 41.6413C55.8339 41.3006 56.1313 41.0474 56.4044 40.8656L55.3772 40.8757C52.2654 40.9098 49.3187 42.3954 46.2436 42.4547C45.7379 42.4694 45.7694 42.0893 46.2601 42.0053C49.4255 41.4811 52.496 40.4336 55.6801 40.0207C55.8928 39.9902 56.1753 39.9515 56.3103 39.9271L56.5491 39.8865C56.627 39.6393 56.6733 39.4044 56.6783 39.1412C56.6812 38.7742 56.7142 38.6532 56.8394 38.5383C56.9935 38.3809 57.4777 38.1714 57.6987 38.2648C57.9495 38.3886 58.0208 38.4722 58.1628 38.6837C58.1832 38.6837 58.2987 38.5556 58.3182 38.5078C58.4482 38.2335 58.9074 37.5105 59.1736 37.365C59.5146 37.1786 59.8128 36.8973 60.1513 36.696C61.5521 35.8822 63.0258 35.2337 64.4729 34.5181C65.1141 34.2028 65.8152 33.7273 66.5284 33.6834C66.6469 33.6732 66.8896 33.7454 67.1216 33.8532C67.3576 33.964 67.3508 33.9569 67.3168 34.0159C67.2026 34.2101 67.0294 34.3529 66.8556 34.4866C65.2886 35.7583 63.746 37.0615 62.1689 38.3197C61.613 38.9309 60.9599 39.1219 60.3018 39.494C60.1853 39.5601 59.7736 39.7228 59.7163 39.7268C59.6029 39.7268 60.2735 39.9443 60.4804 40.1427C60.8145 40.4571 60.9748 41.1469 61.1213 41.5824C61.2184 41.8772 61.2494 41.9047 61.4679 41.9047C61.7399 41.9047 62.0458 41.8296 62.3175 41.7867C62.4857 41.7555 62.6249 41.8538 62.735 42.0816C62.8971 42.414 62.8427 42.6489 62.5427 42.9255C62.2992 43.1528 62.05 43.3025 61.7611 43.4531C61.7836 44.2888 61.8003 44.5084 61.1154 45.0626C60.8009 45.3168 60.7203 45.3676 60.63 45.3676C60.5523 45.3676 60.4513 45.2812 60.094 44.9142L59.6561 44.4567C59.2035 44.5082 58.9563 44.8464 58.5599 45.0006C58.2091 45.1709 57.7285 45.0679 57.3482 45.1328C52.7638 46.4046 48.4783 48.3939 44.1007 50.2581C43.9629 50.313 43.9629 50.3344 44.1007 50.3933C46.0219 51.1768 46.092 53.3966 46.1183 55.2299L46.365 55.7403L46.7524 55.7362C50.6438 55.7073 54.5154 55.0208 58.392 54.7012C59.1978 54.6351 59.6221 54.5863 59.7163 54.5446C59.8785 54.4725 59.9862 54.5213 59.8785 54.6148C59.6502 54.8292 59.4867 54.9782 59.1639 55.1476C58.4158 55.5442 57.4351 55.576 56.6064 55.6742C54.111 55.973 51.5986 56.3482 49.0826 56.3595C49.0307 56.3605 48.403 56.4131 48.403 56.4398C48.403 56.453 48.4331 56.5293 48.4709 56.6127C48.8131 57.3742 49.4808 58.5413 48.6486 59.2307C48.5583 59.3039 48.5476 59.3588 48.6214 59.3588C48.8544 59.3588 49.2414 60.1106 49.0389 60.3186C49.013 60.3451 49.013 60.3644 49.0389 60.3766C49.4864 60.6748 49.3411 61.7588 48.9855 62.102C48.3247 62.7568 46.9424 62.1146 46.1795 62.1254C45.7746 62.1254 45.6474 62.0806 45.5766 61.9078C45.5361 61.8107 45.4447 61.3879 45.3037 61.4198C45.2018 61.4401 44.7639 61.3537 44.6435 61.2876C44.5208 61.2221 44.4322 61.0945 44.4105 60.9521C44.3804 60.8138 44.3464 60.7792 44.2182 60.7792C43.7599 60.7792 43.3927 59.9026 43.3424 59.49C43.356 59.4249 43.2648 59.4798 43.022 59.6812C40.2823 61.9221 36.9533 63.1934 34.1855 65.3504C34.1098 65.4112 34.0186 65.4473 33.9234 65.4541C33.8515 65.4541 33.7806 65.4023 33.6263 65.2396C33.3767 64.9692 33.3097 64.8614 33.3097 64.7302C33.3097 63.9317 35.565 62.0913 36.139 61.5408C37.467 60.2618 38.8619 58.5903 40.4821 57.7697C40.6102 57.6995 40.6403 57.6274 40.5461 57.6274C39.8453 57.4145 39.1994 56.8159 38.5994 56.3839C38.579 56.3595 38.5043 56.3636 38.3965 56.3941C37.689 56.6079 37.2014 57.7606 36.6313 58.2476C36.4633 58.4001 36.4362 58.4377 36.4896 58.4753C36.7179 58.6205 36.7435 58.8153 36.7789 59.0823C36.5373 59.3312 36.3009 59.6025 36.0245 59.8093C35.4973 60.216 34.9611 60.5831 34.3273 60.7924C34.0069 60.9002 33.902 60.8829 33.7981 60.6989C33.6808 60.4934 32.9795 60.7399 32.7534 60.7233C32.1611 60.6786 32.1301 60.6826 31.9621 60.8067C31.763 60.949 31.4931 60.9693 31.3115 60.8514C31.1578 60.7583 31.0408 60.6108 30.9814 60.4356C30.7829 59.7793 31.3275 59.1045 31.0416 58.4204L30.5134 58.4448C29.9911 58.4692 29.9843 58.4692 29.9134 58.3889C29.8022 58.2583 29.8319 58.0354 29.7755 57.8734C26.9555 58.8629 23.7943 60.5815 20.9216 61.1808C20.4957 61.2541 19.9914 61.6237 19.6749 61.9322C19.4283 62.164 19.2399 62.2433 18.8894 62.2606C18.5224 62.2779 18.2699 62.3623 17.9961 62.5483C17.4271 62.9428 17.3126 62.9855 16.8242 63.0089C16.4019 63.0227 15.9452 63.1265 15.5348 63.2407C15.237 63.3298 14.9621 63.2368 14.6813 63.1929C14.5774 63.1685 14.4425 62.9886 14.4425 62.8676C14.4352 62.6279 14.2289 62.5275 14.4872 62.2779C14.6561 62.1077 14.8859 61.9359 15.1765 61.7624C15.3998 61.6302 15.4367 61.5509 15.3348 61.4167C15.1098 61.1195 14.9702 60.6839 14.8202 60.3319C14.6881 60.0238 14.6745 59.7777 14.7794 59.671C14.8707 59.5775 14.8066 59.5805 14.5571 59.6842C13.7317 60.0359 13.006 60.622 12.286 61.1635C10.7458 62.3195 9.09954 63.5414 7.46825 64.536C6.81474 64.9432 6.20557 65.3197 5.50793 65.631C5.43025 65.6717 5.2215 65.6717 5.19723 65.631ZM20.8138 59.2795C20.7662 59.2307 20.7662 59.1098 20.8138 59.002C21.191 58.1132 22.58 58.4889 23.2256 58.0707C23.2398 58.0435 23.2084 58.0402 23.1314 58.0605C22.5016 58.2055 19.8331 58.0425 19.8331 58.7315C19.8331 59.0575 20.0778 59.2692 20.0351 59.6425C20.0351 59.7553 20.9624 59.4305 20.8138 59.2795ZM43.4366 56.5567C43.6338 56.4451 43.8551 56.4666 43.8551 56.1755C43.8551 55.6789 42.9393 51.7005 42.7055 51.5839C42.3322 51.3233 40.4738 54.1235 40.2257 54.3992C40.1519 54.4826 40.1791 54.5345 40.3442 54.6351C40.6848 54.8372 42.8582 56.287 43.2143 56.5578C43.2143 56.5984 43.3611 56.5799 43.4376 56.5578M41.8501 44.5512C41.2848 44.804 40.9475 45.1674 40.4927 45.6015C40.1752 45.9024 40.0781 46.0265 40.1529 46.0265C40.7615 45.9077 41.9055 44.5285 41.8501 44.5512ZM43.0589 41.9016C42.8479 40.907 42.7364 39.9065 42.5501 38.9175C42.5327 38.8057 42.5191 38.7894 42.4589 38.7955C42.4181 38.8026 42.3909 38.8301 42.3987 38.8585C42.6069 39.6944 42.7787 41.8325 42.9443 42.0338C43.0453 42.0856 43.089 42.0338 43.0589 41.9016Z" fill="black"/>
<path d="M14.973 29.2257L13.1758 15.1228L23.8949 13.9538L24.288 17.0389L17.7077 17.7565L18.0166 20.1804L23.9419 19.5342L24.335 22.6192L18.4097 23.2654L19.1117 28.7744L14.973 29.2257Z" fill="black"/>
<path d="M28.7118 27.621L28.516 13.4216L35.1413 13.3434C36.2805 13.33 37.2802 13.5262 38.1403 13.9321C39.0005 14.338 39.6731 14.9149 40.1581 15.6627C40.6432 16.4105 40.8927 17.2883 40.9066 18.2959C40.9206 19.3128 40.6879 20.1962 40.2085 20.9462C39.7341 21.6961 39.06 22.2773 38.1861 22.6898C37.3173 23.1022 36.2983 23.3153 35.1291 23.3291L31.1719 23.3758L31.1306 20.3806L34.2484 20.3439C34.738 20.3381 35.1542 20.2546 35.4968 20.0934C35.8443 19.9275 36.1084 19.6955 36.2892 19.3975C36.475 19.0994 36.5651 18.7493 36.5596 18.3472C36.554 17.9405 36.4543 17.5949 36.2605 17.3106C36.0716 17.0216 35.8012 16.8028 35.4493 16.6544C35.1024 16.5014 34.6841 16.4277 34.1945 16.4335L32.7255 16.4508L32.8788 27.5718L28.7118 27.621Z" fill="black"/>
<path d="M49.1704 13.925L51.1713 24.1869L51.2905 24.1984L55.5513 14.5447L60.2327 14.9993L53.5909 28.6329L47.9256 28.0827L44.489 13.4704L49.1704 13.925Z" fill="black"/>
<path d="M15.4601 67.5303L17.9591 67.9143L19.6582 75.0959L19.7705 75.1132L23.3502 68.7427L25.8492 69.1267L24.4496 79.212L22.4841 78.91L23.3951 72.3456L23.3155 72.3334L19.9311 78.4674L18.5927 78.2617L17.0199 71.3409L16.9404 71.3287L16.0261 77.9176L14.0605 77.6156L15.4601 67.5303Z" fill="black"/>
<path d="M28.1282 79.9602L25.9371 79.8332L29.8082 69.8498L32.4432 70.0024L35.2447 80.3724L33.0535 80.2455L31.0418 72.2539L30.9662 72.2495L28.1282 79.9602ZM28.2006 75.952L33.3762 76.2519L33.2883 77.9315L28.1127 77.6316L28.2006 75.952Z" fill="black"/>
<path d="M37.1995 80.4352L36.9816 70.2455L43.393 70.0937L43.431 71.8699L39.0669 71.9733L39.1188 74.4013L43.0574 74.308L43.0954 76.0842L39.1568 76.1775L39.2468 80.3867L37.1995 80.4352Z" fill="black"/>
<path d="M47.3847 69.5526L48.1829 79.7102L46.142 79.8878L45.3439 69.7302L47.3847 69.5526Z" fill="black"/>
<path d="M52.2766 78.7354L50.1068 79.0805L51.9655 68.4769L54.5749 68.0619L59.3238 77.6146L57.154 77.9597L53.6384 70.5664L53.5636 70.5783L52.2766 78.7354ZM51.5721 74.7957L56.6973 73.9806L56.9362 75.6439L51.811 76.459L51.5721 74.7957Z" fill="black"/>
</g>
<defs>
<clipPath id="clip0_2550_196">
<rect width="72" height="100" fill="white"/>
</clipPath>
</defs>
</svg>
